<?xml version="1.0" encoding="UTF-8" standalone="no"?><!DOCTYPE svg PUBLIC "-//W3C//DTD SVG 1.1//EN" "http://www.w3.org/Graphics/SVG/1.1/DTD/svg11.dtd"><svg width="100%" height="100%" viewBox="0 0 81 176" version="1.1" xmlns="http://www.w3.org/2000/svg" xmlns:xlink="http://www.w3.org/1999/xlink" xml:space="preserve" style="fill-rule:evenodd;clip-rule:evenodd;stroke-linejoin:round;stroke-miterlimit:1.41421;"><path d="M32.206,43.341c-3.816,-5.135 -4.319,-9.991 0.911,-15.133c2.09,-2.055 9.321,-2.974 12.75,1.343c2.907,3.659 1.977,7.925 1.18,11.688c-1.203,1.997 -1.705,3.363 -3.106,4.764c0.525,0.875 0.351,1.191 0.876,2.067c4.203,1.315 9.002,2.366 13.205,3.152c0,1.577 0,1.962 0,3.539c4.729,4.028 10.252,8.651 14.98,12.68l7.228,20.175l-4.074,1.646c2.665,1.826 4.271,4.182 1.646,10.24c-9.048,2.648 -9.767,-1.232 -8.278,-4.67c1.094,-1.705 3.774,-2.617 3.281,-5.115l-1.962,0.725c-1.752,-5.255 -1.123,-10.708 -3.668,-14.177c-3.854,-3.156 -9.294,-9.354 -13.146,-11.452c-1.051,1.577 -2.697,4.74 -3.748,6.316c0.351,3.678 -0.093,6.761 0.258,10.439c4.228,5.123 7.941,11.084 10.578,18.321c-1.226,0.699 -1.856,2.193 -3.083,2.895c1.927,8.758 2.861,15.531 4.788,24.289c5.848,11.945 9.264,25.693 13.522,38.168l-0.887,6.98c-1.94,0.441 -3.882,0.883 -5.822,1.326c-0.666,-3.623 -1.802,-3.488 -3.406,0.404l-9.852,1.799c0.078,-1.633 1.213,-1.68 1.291,-3.313l6.375,-2.697l-11.19,-39.705c-2.271,-12.674 -5.455,-23.936 -12.913,-25.295c-6.132,7.086 -11.422,13.354 -17.555,17.822c0.875,1.426 0.836,3.342 0.35,4.146c-2.578,4.262 -2.051,9.355 -3.968,13.955l-0.111,18.242l-0.954,1.406l0.142,4.523c-1.721,0.014 -3.441,0.025 -5.162,0.039c-0.62,-3.869 -1.855,-2.369 -4.115,0.453c-2.721,0.52 -5.441,1.037 -8.163,1.557c-0.771,-1.01 -0.414,-2.311 0.871,-3.182l6.247,-4.502l-3.819,-0.127c4.099,-9.475 5.563,-23.244 8.167,-38.699c4.28,-9.52 10.285,-17.018 17.646,-24.014c-5.729,-1.365 -11.307,-4.621 -15.542,-7.855l2.972,-7.335l1.598,-20.629l5.334,-10.575c-3.449,-9.006 -5.635,-16.362 -9.084,-25.368c-0.245,-1.186 0.352,-5.556 1.27,-5.113c-1.203,-2.2 -2.837,-8.236 -0.947,-8.424c0.77,-0.077 -1.284,-0.79 -1.527,-1.229c-1.197,-2.167 1.39,-5.122 4.827,-5.228c-0.349,-1.324 -0.893,-5.314 -0.261,-4.492c1.35,1.758 2.531,4.288 3.449,7.474c-0.575,2.299 -2.478,6.447 -1.923,8.485c3.449,10.54 7.295,19.096 10.744,29.635c2.677,-0.657 3.085,-0.407 1.78,-2.364Z" style="fill:#fff;"/></svg>